<svg xmlns="http://www.w3.org/2000/svg" viewBox="0 0 750 500"><g id="freepik--background-complete--inject-85"><rect x="58.39" y="333.03" width="26.48" height="11.19" style="fill:#ebebeb"></rect><rect x="43.62" y="347.14" width="26.48" height="11.19" style="fill:#ebebeb"></rect><rect x="73.17" y="347.14" width="26.48" height="11.19" style="fill:#ebebeb"></rect><rect x="73.17" y="235.54" width="26.48" height="11.19" style="fill:#ebebeb"></rect><rect x="665.13" y="236.76" width="26.48" height="11.19" style="fill:#ebebeb"></rect><rect x="665.13" y="81.19" width="26.48" height="11.19" style="fill:#ebebeb"></rect><rect x="679.9" y="95.3" width="26.48" height="11.19" style="fill:#ebebeb"></rect><rect x="43.62" y="81.2" width="26.48" height="11.19" style="fill:#ebebeb"></rect><path d="M673.2,309.59a25.85,25.85,0,0,1-.09,3.53c0-.78,0-1.57.07-2.35C673.19,310.38,673.2,310,673.2,309.59Z" style="fill:#dbdbdb"></path><path d="M682.17,385.29c-.16.34.39.62.58.3a75,75,0,0,0,9.61-28.43,39.32,39.32,0,0,0,8.36-14.84h0c4.7-.67,9.68-1.91,12.33-6.21,2.47-4,2.86-9.71,3.3-14.26l.08-.07a.19.19,0,0,0-.25-.29,68.14,68.14,0,0,0-10.06,9.29c-2.62,3.06-3.59,6.58-5.06,10.19a73.72,73.72,0,0,0,2.59-20.11.27.27,0,0,0,.07-.26l-.07-.2v-.23a.11.11,0,0,0,0-.06c3.06-3.3,5.61-5.81,5.87-10.48.32-5.77-2.23-10.35-4.51-15.44a.25.25,0,0,0-.46,0c-1.88,4-4.23,8.24-4.56,12.72-.35,4.74,1.47,9.51,3.17,13.85a.3.3,0,0,0,.12.13c-1.25,12.63-4.06,24.3-10.81,35.07,2.13-18.81-2.44-38.1-10.23-56v0c11.06-4.15,8.08-14.86,6.63-24.17,0,0-.06-.39-.07-.49h0c0-.05,0-.07-.07,0s-5.85,7.7-7,12c-.94,3.5-.52,7.34-.25,11q-2.36-5.22-5-10.25c0-.2,0-.41,0-.62a.08.08,0,0,0,0-.13l0-.05c.14-4.09.26-8.17-1.44-12-2-4.42-5.7-8.06-9.19-11.33,0-.06-.24,0-.24.05-.48,4.62-1.43,10.33.58,14.72,1.85,4.06,6.35,6.31,9.61,9.05l.08,0c6.11,14.69,12.59,29.33,15,45.11a72.66,72.66,0,0,1-18-16.71c2.78-2.58,4.64-5.46,4.41-9.4a25.35,25.35,0,0,0-5.72-14.5h0a.14.14,0,0,0-.12-.06.24.24,0,0,0-.3.33,24.59,24.59,0,0,0-.77,20.18,111.81,111.81,0,0,1-7.33-12.15c2.21-8.09-5.09-12.34-10-17.64-.13-.15-.42,0-.3.2a2.39,2.39,0,0,0,.13.21c-.91,8.41,2.38,15,10.08,18.91a.53.53,0,0,0,.16,0A61.39,61.39,0,0,0,676,321.81a17.81,17.81,0,0,0-6.17-2.87c-4.38-1-8.15.82-12.25,2.11l-.11,0-.06,0a.34.34,0,0,0,0,.64l0,0c6.26,4.08,15,9.57,21.62,3.15l.45.27a76.68,76.68,0,0,0,11.43,8.7.58.58,0,0,0,.21.07c.19,1.38.36,2.78.49,4.18a84.68,84.68,0,0,1-4.07,34c-5.43-7.59-9.24-14.94-11.2-24.22,2-7.55-2.25-13.3-7.44-18.62h0a.19.19,0,0,0-.35.07c-.74,3.59-1.86,8.29-.54,11.85s4.75,5.87,7.85,7.63c0,0,0,0,.07,0a53,53,0,0,0,3.44,12,20.36,20.36,0,0,0-6.72-6.78c-3.52-2.05-7-1.95-11-1.64-.32,0,4.87,13.94,18.15,9.85.15.18.29.36.44.53a42.23,42.23,0,0,0,6.91,10.43A103.49,103.49,0,0,1,682.17,385.29Zm-2.77-23.4c-3.67.06-7.55.35-10.79-1.66-3-1.87-4.22-4.32-6.41-7.12,4,.22,7.19-.28,10.94,2.25C675.69,357.07,677.5,359.53,679.4,361.89ZM675.74,348c-3.27-1.87-6.42-4.49-7.09-8.32-.57-3.22.08-6.51.22-9.76,1.8,2.35,3.58,4.74,5.16,7.23,2.26,3.58,2.16,6.69,1.87,10.57a.25.25,0,0,0-.16.28Zm-13.3-47.18a20.06,20.06,0,0,1-6.89-6.6c-2-3.31-1.69-6.75-2.27-10.37a39,39,0,0,0,5.16,5.45C661.74,292.53,663.18,296.19,662.44,300.79ZM672.81,315l-.14.16a58.41,58.41,0,0,1-1.89-10.73c-.21-3.51.53-6.92.72-10.39a71,71,0,0,1,1.41,10.58c.09,1.56.24,3.26.29,5,0-1.65,0-3.3-.05-4.95a53.76,53.76,0,0,0-1.62-11.22v-.16c1.18,4,3.55,7.58,3.85,11.86a16.21,16.21,0,0,1-2.46,9.71,14.2,14.2,0,0,0,.19-1.71A14.88,14.88,0,0,1,672.81,315Zm-1.43-21.5a1.16,1.16,0,0,1,0,.18,50.73,50.73,0,0,0-.83,11.06,63,63,0,0,0,2,10.53l-.09.11c-1.46-4.11-3.34-8.19-3.08-12.65C669.58,299.64,670.69,296.56,671.38,293.51ZM673.62,314a15.73,15.73,0,0,0,2-8.11c-.09-4.46-2.4-8.16-3.84-12.24a40.29,40.29,0,0,1,4,9.41C677,307.9,676.14,310.78,673.62,314Zm4.77,10.55c-3.17,1.68-6.26,2.79-10,2.11s-6.79-3.08-9.87-5.12c3.71-.87,7.1-2.57,11-1.66C673,320.69,675.53,322.77,678.39,324.57Zm-2.9-40.77a53.92,53.92,0,0,0-9-19c2.84,3.13,5.56,6.18,7.34,10.14C675.16,277.85,675.2,280.82,675.49,283.8Zm.11,2.33A150.66,150.66,0,0,0,666.41,265a60.76,60.76,0,0,1,9.26,20.31c.05.36.11.72.18,1.07Zm-7.11-9.79c-1.48-3.73-1.74-7.89-2.44-11.83A194.35,194.35,0,0,1,675.51,286C672.89,283,670,280.05,668.49,276.34Zm7,10c-3-2.41-6.59-4.6-8.16-8.21-1.66-3.79-1.45-9.68-1.46-13.84.53,4.12.92,8.64,2.54,12.48C670,280.37,672.86,283.4,675.51,286.32Zm7.73,4.46h0c.65-5.22,3.49-9.4,5.34-14.15A41.67,41.67,0,0,1,687,287.88c-1.07,3.87-3.07,7.37-4.7,11,.14-2.34.35-4.66.71-7,0,0,0,0,0,0a42.8,42.8,0,0,0-.87,6.58c-.1-4-.17-8.48,1-12.11,1.28-3.94,3.65-6.91,5.43-10.43a1.09,1.09,0,0,0,0,.18C686.33,280.7,683.79,285.68,683.24,290.78Zm5.58-12.53c.28,3.71.61,7.5-.26,11.1a19.77,19.77,0,0,1-6.23,9.95,57.4,57.4,0,0,0,4.9-11.37,44.4,44.4,0,0,0,1.12-5.85C688.52,280.83,688.73,279.54,688.82,278.25Zm-6.53,21.38c0-.08,0-.16,0-.24a19.18,19.18,0,0,0,6.18-9.22,23.08,23.08,0,0,0,.85-8.06,37.28,37.28,0,0,1,.33,5.06C689.52,292.89,686.94,296.6,682.29,299.63Zm21.25,20.28c-1.38-4.24-3-9.18-2.46-13.58a80.49,80.49,0,0,1,3.77-10.95s3.73,8.87,3.66,13.39C708.43,313.69,705.45,315.92,703.54,319.91Zm-2.4,21.65c2-3.48,2.84-7.23,5.54-10.37a112,112,0,0,1,9.42-9.06c-.91,3.71-1.27,7.61-2.63,11.18C711.34,338.89,706.46,340.43,701.14,341.56Z" style="fill:#dbdbdb"></path><path d="M662.12,300.19c.11.27.23.53.34.8,0,.07.14.05.11,0s-.09-.3-.14-.44l.23.23c0,.25.07.49.11.74,0,0,.05,0,.05,0,0-.22-.07-.44-.1-.66l.3.32s0,0,0,0l-.33-.35c-1-6.36-4.63-11.68-8.86-16.42-.1-.18-.21-.36-.32-.54,0,0,0,0,0,0a.07.07,0,0,0-.11,0l-.12-.14s-.09,0-.07,0l.23.32a42.68,42.68,0,0,0,3.22,9.28A28.78,28.78,0,0,0,662.12,300.19ZM654,284.77c2.7,5.13,5.85,10,8.13,15.33a29.66,29.66,0,0,1-5.28-6.88,50.14,50.14,0,0,1-3.14-8.83C653.76,284.52,653.85,284.65,654,284.77Zm8.46,15.67a44.26,44.26,0,0,0-3.75-7.63c-1.31-2.34-2.59-4.69-3.94-7,1.55,2,3.2,3.91,4.59,6a23,23,0,0,1,3.34,8.85Z" style="fill:#dbdbdb"></path><path d="M657.75,321.79l.85-.18a19.65,19.65,0,0,0,4.88,2.68,19.4,19.4,0,0,0,5.11,1.57,17.26,17.26,0,0,0,9.74-1.41l.4.18s.07,0,0-.05h0s0,0,0-.05l-.24-.08-.08,0,.48-.23s0,0,0,0l-.5.22a31.87,31.87,0,0,0-10.08-3.68,27.71,27.71,0,0,0-9.8.75l-.16-.1s0,0,0,0a.94.94,0,0,0,.1.1h-.13a0,0,0,0,0,0,0l-.58.12A.08.08,0,0,0,657.75,321.79Zm20,2.39a55.36,55.36,0,0,0-18.28-2.74,25.77,25.77,0,0,1,8.88-.52A36.81,36.81,0,0,1,677.7,324.18Zm-19-2.6h.08a62.56,62.56,0,0,1,19.45,2.85l0,0C671.64,327.29,664.58,325.54,658.72,321.58Z" style="fill:#dbdbdb"></path><path d="M675.61,348.53a.08.08,0,1,0,.15,0c0-.15,0-.29,0-.44l.38.39c.05,0,.12,0,.07-.08l-.45-.5c.12-6.37-2.53-12-6.24-17l-.55-1.07s0,0,0,0c.08.21.17.42.26.63l-.23-.31V330s0,0,0,0v.12l-.1-.14s-.08,0-.06,0a1.88,1.88,0,0,1,.16.23,27.75,27.75,0,0,0,1.26,10,23.56,23.56,0,0,0,5.33,7.65l0,.18a0,0,0,1,0,.05,0s0-.06,0-.09l0,0Zm0-.81-.08-.09a36.91,36.91,0,0,0-2.34-7.6h0a41.25,41.25,0,0,1,2.29,7.54c-2.18-2.41-4.24-4.88-5.27-8a36,36,0,0,1-1.22-9.26l.41.6c1,2.26,2,4.49,2.9,6.79a0,0,0,0,0,0,0c-.78-2.06-1.55-4.12-2.48-6.12a33.89,33.89,0,0,1,4.11,7.33A27.53,27.53,0,0,1,675.61,347.72Z" style="fill:#dbdbdb"></path><path d="M662,353.22l.24,0c4.24,5,10.9,8.8,17.58,8.59,0,0,0,0,0,0A26.85,26.85,0,0,1,669.63,359a27.5,27.5,0,0,1-7.16-5.66l.43.08a77.62,77.62,0,0,1,16,7.82l.32.3s0,0,0,0l-.2-.2.52.33s.07,0,0,0c-.32-.25-.65-.49-1-.73a23.18,23.18,0,0,0-7.17-5.49,33.35,33.35,0,0,0-8.87-2.27l-.34-.1-.22-.24s-.09,0-.06.06l.12.15s0,.06,0,.09A.1.1,0,0,0,662,353.22Zm2.09.38a31.49,31.49,0,0,1,7.14,2,26.25,26.25,0,0,1,6.92,5A54.46,54.46,0,0,0,664.13,353.6Z" style="fill:#dbdbdb"></path><path d="M703.42,320.2c0-.05,0-.11,0-.17s.05,0,.07,0c1.83-3.62,3.49-7.91,3.72-12a24.53,24.53,0,0,0-.66-6,60.32,60.32,0,0,0-1.72-7.14.1.1,0,0,0-.2.05c.08.37.17.75.25,1.13,0,4.09.13,8.19-.26,12.28-.38,3.82-1,7.6-1.24,11.44l-.07.16a.11.11,0,0,0,0,.15c0,.06,0,.12,0,.18A0,0,0,1,0,703.42,320.2Zm0-.66c.23-3.78,1-7.5,1.35-11.27a85.3,85.3,0,0,0,.13-12.07c.86,3.67,2,7.39,2,11.15C706.9,311.52,705.12,315.76,703.46,319.54Z" style="fill:#dbdbdb"></path><path d="M703.24,320.32c-.17-4.11-1.77-7.88-1.4-12.05a32.9,32.9,0,0,1,2.48-10.38s0,0,0,0A34.9,34.9,0,0,0,702,309.16c-.19,3.79,1.2,7.39,1.34,11.16A0,0,0,1,1,703.24,320.32Z" style="fill:#dbdbdb"></path><path d="M699.86,341.61c.28,0,.56-.06.84-.1,0,0,0,.08.08.05l.14-.08.19,0-.08.11c-.06.09.08.16.14.08l.17-.23A18.26,18.26,0,0,0,712,334.56c2.74-3.57,3-8.47,4.4-12.63a.08.08,0,0,0-.14-.06c-.13.28-.25.57-.36.86.05-.17.11-.35.16-.53,0,0,0,0-.05,0a50.55,50.55,0,0,1-6.06,10.9,39.47,39.47,0,0,1-8.08,7.57c2.2-3.07,4-6.36,6.44-9.3s5.14-6.12,7.69-9.2c0,0,0-.07,0,0-2.94,3-5.53,6.36-8.18,9.6-2.38,2.92-4.22,6.16-6.34,9.25l-.32.22a11.05,11.05,0,0,1-1.27.17C699.7,341.37,699.7,341.63,699.86,341.61Zm1.75-.58c5.89-3.87,11.31-10,13.79-16.77-.87,3-1.17,6.22-2.8,8.95a17.72,17.72,0,0,1-11,7.89Z" style="fill:#dbdbdb"></path><path d="M670.69,373.16s.42,3.75,1,9.09c1.38,12.57,3.7,33.89,3.7,35.19h20.85c0-1.3,2.31-22.62,3.69-35.19.58-5.34,1-9.09,1-9.09Z" style="fill:#dbdbdb"></path><path d="M670.69,373.16s.42,3.75,1,9.09h28.24c.58-5.34,1-9.09,1-9.09Z" style="fill:#c7c7c7"></path><rect x="668.79" y="371.66" width="34.04" height="6.63" transform="translate(1371.62 749.95) rotate(180)" style="fill:#dbdbdb"></rect></g><g id="freepik--Shadow--inject-85"><ellipse cx="375" cy="445.69" rx="16.28" ry="93.59" transform="translate(-72.21 818.87) rotate(-89.77)" style="fill:#ebebeb"></ellipse></g><g id="freepik--Floor--inject-85"><polygon points="30.61 417.27 116.71 417.03 202.81 416.94 375 416.77 547.19 416.94 633.29 417.03 719.39 417.27 633.29 417.52 547.19 417.6 375 417.77 202.81 417.6 116.71 417.51 30.61 417.27" style="fill:#263238"></polygon></g><g id="freepik--Books--inject-85"><polygon points="321.04 348.87 299.75 358.86 104.43 358.86 104.43 135.1 321.04 135.1 321.04 348.87" style="fill:#fff"></polygon><polygon points="428.94 348.87 450.24 358.86 645.56 358.86 645.56 135.1 428.94 135.1 428.94 348.87" style="fill:#fff"></polygon><rect x="145.13" y="150.49" width="143.86" height="208.39" style="fill:#fff"></rect><rect x="111.72" y="199.78" width="180.66" height="3.75" style="fill:#263238"></rect><rect x="111.72" y="252.81" width="180.66" height="3.75" style="fill:#263238"></rect><rect x="111.72" y="305.85" width="180.66" height="3.75" style="fill:#263238"></rect><rect x="110.27" y="171.25" width="42.23" height="14.81" transform="translate(310.04 47.27) rotate(90)" style="fill:#a6a6a6"></rect><rect x="129.06" y="178.08" width="4.64" height="14.81" transform="translate(316.87 54.09) rotate(90)" style="fill:#E3E3E3"></rect><rect x="130.52" y="159.32" width="1.72" height="14.81" transform="translate(298.11 35.34) rotate(90)" style="fill:#E3E3E3"></rect><rect x="220.94" y="171.26" width="42.23" height="14.81" transform="translate(63.4 420.72) rotate(-90)" style="fill:#37474f"></rect><rect x="239.74" y="164.43" width="4.64" height="14.81" transform="translate(70.23 413.89) rotate(-90)" style="fill:#E3E3E3"></rect><rect x="241.2" y="188.99" width="1.72" height="14.81" transform="translate(438.45 -45.66) rotate(90)" style="fill:#E3E3E3"></rect><rect x="241.2" y="181.06" width="1.72" height="14.81" transform="translate(430.52 -53.6) rotate(90)" style="fill:#E3E3E3"></rect><rect x="181.28" y="173.04" width="42.23" height="11.23" transform="translate(381.05 -23.75) rotate(90)" style="fill:#37474f"></rect><rect x="200.08" y="179.87" width="4.64" height="11.23" transform="translate(387.88 -16.92) rotate(90)" style="fill:#E3E3E3"></rect><rect x="201.54" y="161.11" width="1.72" height="11.23" transform="translate(369.12 -35.67) rotate(90)" style="fill:#E3E3E3"></rect><rect x="229.42" y="173.49" width="46.32" height="6.24" transform="translate(75.97 429.19) rotate(-90)" style="fill:#a6a6a6"></rect><rect x="243.7" y="163.68" width="17.82" height="3.74" transform="translate(87.05 418.16) rotate(-90)" style="fill:#ebebeb"></rect><rect x="190.66" y="172.07" width="45.04" height="10.35" transform="translate(35.94 390.43) rotate(-90)" style="fill:#E3E3E3"></rect><rect x="204.57" y="183.77" width="17.32" height="6.21" transform="translate(26.36 400.1) rotate(-90)" style="fill:#fff"></rect><rect x="148.9" y="172.28" width="37.42" height="17.57" transform="translate(348.68 13.46) rotate(90)" style="fill:#a6a6a6"></rect><rect x="165.87" y="185.28" width="3.49" height="17.57" transform="translate(361.68 26.46) rotate(90)" style="fill:#37474f"></rect><rect x="166.93" y="180.57" width="1.35" height="17.57" transform="translate(356.97 21.75) rotate(90)" style="fill:#37474f"></rect><rect x="100.33" y="176.12" width="35.17" height="12.14" transform="translate(300.11 64.28) rotate(90)" style="fill:#E3E3E3"></rect><rect x="116.27" y="188.34" width="3.28" height="12.14" transform="translate(312.32 76.5) rotate(90)" style="fill:#37474f"></rect><rect x="116.27" y="167.43" width="3.28" height="12.14" transform="translate(291.41 55.58) rotate(90)" style="fill:#37474f"></rect><rect x="117.28" y="171.95" width="1.27" height="12.14" transform="translate(295.93 60.1) rotate(90)" style="fill:#37474f"></rect><rect x="233.78" y="169.05" width="52.64" height="8.81" transform="translate(86.65 433.56) rotate(-90)" style="fill:#E3E3E3"></rect><rect x="257.65" y="150.76" width="4.91" height="8.81" transform="translate(104.94 415.27) rotate(-90)" style="fill:#37474f"></rect><rect x="257.65" y="182.07" width="4.91" height="8.81" transform="translate(73.63 446.58) rotate(-90)" style="fill:#37474f"></rect><rect x="259.16" y="175.3" width="1.9" height="8.81" transform="translate(80.4 439.81) rotate(-90)" style="fill:#37474f"></rect><rect x="201.87" y="166.99" width="49.27" height="16.3" transform="translate(401.65 -51.37) rotate(90)" style="fill:#a6a6a6"></rect><rect x="224.21" y="184.11" width="4.59" height="16.3" transform="translate(418.76 -34.25) rotate(90)" style="fill:#263238"></rect><rect x="224.21" y="154.81" width="4.59" height="16.3" transform="translate(389.46 -63.55) rotate(90)" style="fill:#263238"></rect><rect x="225.62" y="161.14" width="1.78" height="16.3" transform="translate(395.8 -57.22) rotate(90)" style="fill:#263238"></rect><polygon points="190.99 199.78 175.62 159.55 181.39 157.9 196.75 198.13 190.99 199.78" style="fill:#37474f"></polygon><polygon points="189.36 195.51 187.93 191.76 193.69 190.11 195.13 193.86 189.36 195.51" style="fill:#E3E3E3"></polygon><polygon points="180.22 171.59 178.79 167.84 184.55 166.19 185.99 169.94 180.22 171.59" style="fill:#E3E3E3"></polygon><rect x="124.55" y="171.23" width="47.4" height="8.92" transform="translate(16.85 364.32) rotate(-104.98)" style="fill:#37474f"></rect><rect x="141.79" y="155.32" width="4.42" height="8.92" transform="translate(26.86 340.19) rotate(-104.98)" style="fill:#a6a6a6"></rect><rect x="149.07" y="182.55" width="4.42" height="8.92" transform="translate(9.73 381.49) rotate(-104.98)" style="fill:#a6a6a6"></rect><rect x="148.85" y="176.67" width="1.71" height="8.92" transform="translate(13.43 372.57) rotate(-104.98)" style="fill:#a6a6a6"></rect><rect x="257.39" y="171.38" width="41.88" height="13.05" transform="translate(216.13 502.32) rotate(-111.73)" style="fill:#37474f"></rect><rect x="270.99" y="157.86" width="3.9" height="13.05" transform="translate(221.31 478.8) rotate(-111.73)" style="fill:#a6a6a6"></rect><rect x="280.21" y="181" width="3.9" height="13.05" transform="translate(212.44 519.06) rotate(-111.73)" style="fill:#a6a6a6"></rect><rect x="279.41" y="176" width="1.51" height="13.05" transform="translate(214.38 510.36) rotate(-111.74)" style="fill:#a6a6a6"></rect><rect x="248.33" y="330.34" width="42.23" height="14.81" transform="translate(607.19 68.3) rotate(90)" style="fill:#37474f"></rect><rect x="267.13" y="337.17" width="4.64" height="14.81" transform="translate(614.02 75.13) rotate(90)" style="fill:#E3E3E3"></rect><rect x="268.59" y="318.42" width="1.72" height="14.81" transform="translate(595.27 56.37) rotate(90)" style="fill:#E3E3E3"></rect><rect x="106.67" y="330.35" width="42.23" height="14.81" transform="translate(-209.97 465.54) rotate(-90)" style="fill:#37474f"></rect><rect x="125.47" y="323.53" width="4.64" height="14.81" transform="translate(-203.14 458.71) rotate(-90)" style="fill:#E3E3E3"></rect><rect x="126.93" y="348.09" width="1.72" height="14.81" transform="translate(483.28 227.7) rotate(90)" style="fill:#E3E3E3"></rect><rect x="126.93" y="340.15" width="1.72" height="14.81" transform="translate(475.34 219.77) rotate(90)" style="fill:#E3E3E3"></rect><rect x="217.43" y="331.07" width="45.9" height="9.69" transform="translate(-95.54 576.31) rotate(-90)" style="fill:#E3E3E3"></rect><rect x="237.86" y="323.65" width="5.04" height="9.69" transform="translate(-88.12 568.89) rotate(-90)" style="fill:#37474f"></rect><rect x="239.45" y="350.35" width="1.87" height="9.69" transform="translate(595.58 114.81) rotate(90)" style="fill:#37474f"></rect><rect x="239.45" y="341.72" width="1.87" height="9.69" transform="translate(586.96 106.19) rotate(90)" style="fill:#37474f"></rect><rect x="157.03" y="332.55" width="42.23" height="11.23" transform="translate(558.53 375.66) rotate(123.41)" style="fill:#37474f"></rect><rect x="172.07" y="338.25" width="4.64" height="11.23" transform="translate(557.46 387.64) rotate(123.41)" style="fill:#E3E3E3"></rect><rect x="183.85" y="322.6" width="1.72" height="11.23" transform="translate(560.4 354.74) rotate(123.41)" style="fill:#E3E3E3"></rect><rect x="97.58" y="336.06" width="36.81" height="8.79" transform="translate(456.44 224.47) rotate(90)" style="fill:#E3E3E3"></rect><rect x="108.95" y="329.95" width="14.16" height="5.28" transform="translate(448.62 216.57) rotate(90)" style="fill:#ebebeb"></rect><rect x="182.76" y="332.58" width="46.32" height="6.24" transform="translate(-129.78 541.63) rotate(-90)" style="fill:#E3E3E3"></rect><rect x="196.99" y="322.78" width="17.82" height="3.74" transform="translate(-118.75 530.55) rotate(-90)" style="fill:#a6a6a6"></rect><rect x="134.14" y="331.17" width="45.04" height="10.35" transform="translate(-179.68 493) rotate(-90)" style="fill:#E3E3E3"></rect><rect x="147.95" y="342.86" width="17.32" height="6.21" transform="translate(-189.35 502.58) rotate(-90)" style="fill:#ebebeb"></rect><rect x="208.04" y="331.38" width="37.42" height="17.57" transform="translate(566.91 113.41) rotate(90)" style="fill:#a6a6a6"></rect><rect x="225.01" y="344.38" width="3.49" height="17.57" transform="translate(579.91 126.41) rotate(90)" style="fill:#37474f"></rect><rect x="226.08" y="339.67" width="1.35" height="17.57" transform="translate(575.2 121.7) rotate(90)" style="fill:#37474f"></rect><rect x="265.34" y="335.22" width="35.17" height="12.14" transform="translate(624.21 58.37) rotate(90)" style="fill:#a6a6a6"></rect><rect x="281.28" y="347.44" width="3.28" height="12.14" transform="translate(636.42 70.59) rotate(90)" style="fill:#37474f"></rect><rect x="281.28" y="326.52" width="3.28" height="12.14" transform="translate(615.51 49.67) rotate(90)" style="fill:#37474f"></rect><rect x="282.28" y="331.04" width="1.27" height="12.14" transform="translate(620.03 54.19) rotate(90)" style="fill:#37474f"></rect><rect x="118.7" y="326.09" width="49.27" height="16.3" transform="translate(477.57 190.9) rotate(90)" style="fill:#a6a6a6"></rect><rect x="141.04" y="343.2" width="4.59" height="16.3" transform="translate(494.69 208.01) rotate(90)" style="fill:#37474f"></rect><rect x="141.04" y="313.9" width="4.59" height="16.3" transform="translate(465.39 178.71) rotate(90)" style="fill:#37474f"></rect><rect x="142.45" y="320.23" width="1.78" height="16.3" transform="translate(471.72 185.05) rotate(90)" style="fill:#37474f"></rect><polygon points="187.41 358.87 202.77 318.64 197.01 316.99 181.64 357.22 187.41 358.87" style="fill:#a6a6a6"></polygon><polygon points="189.03 354.61 190.47 350.86 184.7 349.21 183.27 352.96 189.03 354.61" style="fill:#37474f"></polygon><polygon points="198.17 330.68 199.6 326.94 193.84 325.29 192.41 329.03 198.17 330.68" style="fill:#37474f"></polygon><rect x="189.8" y="330.71" width="47.4" height="8.92" transform="translate(-121.67 548.68) rotate(-90)" style="fill:#37474f"></rect><rect x="211.29" y="314.25" width="4.42" height="8.92" transform="translate(-105.2 532.21) rotate(-90)" style="fill:#a6a6a6"></rect><rect x="211.29" y="342.43" width="4.42" height="8.92" transform="translate(-133.39 560.4) rotate(-90)" style="fill:#a6a6a6"></rect><rect x="212.65" y="336.34" width="1.71" height="8.92" transform="translate(-127.3 554.31) rotate(-90)" style="fill:#a6a6a6"></rect><rect x="225.25" y="223.94" width="42.23" height="15.5" transform="translate(478.06 -14.68) rotate(90)" style="fill:#37474f"></rect><rect x="244.05" y="230.76" width="4.64" height="15.5" transform="translate(484.89 -7.86) rotate(90)" style="fill:#E3E3E3"></rect><rect x="245.51" y="212.01" width="1.72" height="15.5" transform="translate(466.13 -26.61) rotate(90)" style="fill:#E3E3E3"></rect><rect x="102.87" y="229.75" width="42.23" height="5.25" transform="translate(386.49 210.85) rotate(113.39)" style="fill:#37474f"></rect><rect x="118.95" y="236.02" width="4.64" height="5.25" transform="translate(388.45 222.1) rotate(113.39)" style="fill:#E3E3E3"></rect><rect x="127.86" y="218.81" width="1.72" height="5.25" transform="translate(383.06 191.22) rotate(113.39)" style="fill:#E3E3E3"></rect><rect x="140.39" y="223.95" width="42.23" height="15.5" transform="translate(-70.19 393.21) rotate(-90)" style="fill:#37474f"></rect><rect x="159.19" y="217.12" width="4.64" height="15.5" transform="translate(-63.36 386.38) rotate(-90)" style="fill:#E3E3E3"></rect><rect x="160.65" y="241.68" width="1.72" height="15.5" transform="translate(410.94 87.92) rotate(90)" style="fill:#E3E3E3"></rect><rect x="160.65" y="233.74" width="1.72" height="15.5" transform="translate(403 79.99) rotate(90)" style="fill:#E3E3E3"></rect><polygon points="227.84 247.9 207.61 210.34 197.16 215.48 217.39 253.03 227.84 247.9" style="fill:#37474f"></polygon><polygon points="222.11 237.25 219.89 233.13 209.43 238.26 211.66 242.39 222.11 237.25" style="fill:#E3E3E3"></polygon><polygon points="212.43 219.28 211.6 217.75 201.15 222.88 201.97 224.42 212.43 219.28" style="fill:#E3E3E3"></polygon><rect x="208.57" y="222.75" width="49.27" height="10.83" transform="translate(461.37 -5.03) rotate(90)" style="fill:#E3E3E3"></rect><rect x="223.78" y="214.39" width="18.95" height="6.5" transform="translate(450.89 -15.6) rotate(90)" style="fill:#fff"></rect><rect x="132.46" y="231.52" width="36.06" height="6.53" transform="translate(-84.29 385.28) rotate(-90)" style="fill:#a6a6a6"></rect><rect x="143.53" y="224.22" width="13.87" height="3.92" transform="translate(-75.72 376.64) rotate(-90)" style="fill:#ebebeb"></rect><rect x="169.22" y="224.87" width="45.04" height="10.83" transform="translate(-38.54 422.03) rotate(-90)" style="fill:#E3E3E3"></rect><rect x="183.03" y="236.66" width="17.32" height="6.5" transform="translate(-48.21 431.6) rotate(-90)" style="fill:#fff"></rect><rect x="260.11" y="223.93" width="45.05" height="12.71" transform="translate(512.92 -52.35) rotate(90)" style="fill:#a6a6a6"></rect><rect x="280.53" y="239.58" width="4.2" height="12.71" transform="translate(528.57 -36.7) rotate(90)" style="fill:#37474f"></rect><rect x="280.53" y="212.79" width="4.2" height="12.71" transform="translate(501.78 -63.49) rotate(90)" style="fill:#37474f"></rect><rect x="281.82" y="218.58" width="1.63" height="12.71" transform="translate(507.57 -57.7) rotate(90)" style="fill:#37474f"></rect><rect x="153.16" y="219.64" width="49.27" height="17.06" transform="translate(405.97 50.38) rotate(90)" style="fill:#a6a6a6"></rect><rect x="175.5" y="236.76" width="4.59" height="17.06" transform="translate(423.09 67.5) rotate(90)" style="fill:#263238"></rect><rect x="175.5" y="207.46" width="4.59" height="17.06" transform="translate(393.78 38.2) rotate(90)" style="fill:#263238"></rect><rect x="176.9" y="213.79" width="1.78" height="17.06" transform="translate(400.12 44.53) rotate(90)" style="fill:#263238"></rect><polygon points="260.15 252.81 276.25 212.58 270.21 210.93 254.12 251.16 260.15 252.81" style="fill:#E3E3E3"></polygon><polygon points="261.86 248.55 263.36 244.8 257.33 243.15 255.83 246.9 261.86 248.55" style="fill:#37474f"></polygon><polygon points="271.43 224.63 272.93 220.88 266.9 219.23 265.4 222.97 271.43 224.63" style="fill:#37474f"></polygon><rect x="118.7" y="224.29" width="44.61" height="12.44" transform="translate(-89.5 371.52) rotate(-90)" style="fill:#E3E3E3"></rect><rect x="138.93" y="208.79" width="4.16" height="12.44" transform="translate(-74 356.02) rotate(-90)" style="fill:#37474f"></rect><rect x="138.93" y="235.32" width="4.16" height="12.44" transform="translate(-100.53 382.55) rotate(-90)" style="fill:#37474f"></rect><rect x="140.2" y="229.59" width="1.61" height="12.44" transform="translate(-94.8 376.81) rotate(-90)" style="fill:#37474f"></rect><rect x="251.91" y="279.12" width="42.23" height="11.23" transform="translate(557.76 11.7) rotate(90)" style="fill:#37474f"></rect><rect x="270.71" y="285.95" width="4.64" height="11.23" transform="translate(564.59 18.53) rotate(90)" style="fill:#E3E3E3"></rect><rect x="272.17" y="267.19" width="1.72" height="11.23" transform="translate(545.83 -0.22) rotate(90)" style="fill:#E3E3E3"></rect><rect x="259.18" y="276.04" width="49.27" height="10.35" transform="translate(565.03 -2.6) rotate(90)" style="fill:#E3E3E3"></rect><rect x="274.3" y="267.58" width="18.95" height="6.21" transform="translate(554.46 -13.08) rotate(90)" style="fill:#ebebeb"></rect><rect x="239.92" y="278.35" width="37.42" height="17.57" transform="translate(-28.51 545.77) rotate(-90)" style="fill:#a6a6a6"></rect><rect x="256.88" y="265.35" width="3.49" height="17.57" transform="translate(-15.51 532.77) rotate(-90)" style="fill:#263238"></rect><rect x="257.95" y="270.06" width="1.35" height="17.57" transform="translate(-20.22 537.48) rotate(-90)" style="fill:#263238"></rect><rect x="136.94" y="280.17" width="42.23" height="9.12" transform="translate(442.78 126.66) rotate(90)" style="fill:#37474f"></rect><rect x="155.74" y="286.99" width="4.64" height="9.12" transform="translate(449.61 133.49) rotate(90)" style="fill:#E3E3E3"></rect><rect x="157.2" y="268.24" width="1.72" height="9.12" transform="translate(430.86 114.74) rotate(90)" style="fill:#E3E3E3"></rect><rect x="190.34" y="276.41" width="47.63" height="11.23" transform="translate(496.18 67.87) rotate(90)" style="fill:#37474f"></rect><rect x="211.54" y="284.11" width="5.23" height="11.23" transform="translate(503.88 75.57) rotate(90)" style="fill:#E3E3E3"></rect><rect x="213.19" y="262.96" width="1.94" height="11.23" transform="translate(482.73 54.41) rotate(90)" style="fill:#E3E3E3"></rect><rect x="149.81" y="273.6" width="45.04" height="19.43" transform="translate(-110.98 455.65) rotate(-90)" style="fill:#E3E3E3"></rect><rect x="163.76" y="287.11" width="17.32" height="11.66" transform="translate(-120.52 465.36) rotate(-90)" style="fill:#ebebeb"></rect><rect x="170.71" y="276.94" width="40.25" height="17.57" transform="translate(476.56 94.89) rotate(90)" style="fill:#a6a6a6"></rect><rect x="188.96" y="290.92" width="3.75" height="17.57" transform="translate(490.54 108.87) rotate(90)" style="fill:#37474f"></rect><rect x="190.11" y="285.86" width="1.45" height="17.57" transform="translate(485.48 103.81) rotate(90)" style="fill:#37474f"></rect><rect x="94.24" y="278.28" width="45.05" height="10.09" transform="translate(400.09 166.56) rotate(90)" style="fill:#a6a6a6"></rect><rect x="114.66" y="293.93" width="4.2" height="10.09" transform="translate(415.74 182.21) rotate(90)" style="fill:#263238"></rect><rect x="114.66" y="267.14" width="4.2" height="10.09" transform="translate(388.95 155.42) rotate(90)" style="fill:#263238"></rect><rect x="115.95" y="272.93" width="1.63" height="10.09" transform="translate(394.74 161.21) rotate(90)" style="fill:#263238"></rect><rect x="203.73" y="279.22" width="42.66" height="10.59" transform="translate(509.58 59.45) rotate(90)" style="fill:#a6a6a6"></rect><rect x="223.08" y="294.04" width="3.98" height="10.59" transform="translate(524.4 74.27) rotate(90)" style="fill:#E3E3E3"></rect><rect x="223.08" y="268.67" width="3.98" height="10.59" transform="translate(499.03 48.9) rotate(90)" style="fill:#E3E3E3"></rect><rect x="224.3" y="274.16" width="1.54" height="10.59" transform="translate(504.52 54.38) rotate(90)" style="fill:#E3E3E3"></rect><rect x="181.41" y="278.71" width="45.34" height="8.92" transform="translate(-79.09 487.26) rotate(-90)" style="fill:#E3E3E3"></rect><rect x="201.97" y="262.96" width="4.23" height="8.92" transform="translate(-63.34 471.51) rotate(-90)" style="fill:#ebebeb"></rect><rect x="201.97" y="289.93" width="4.23" height="8.92" transform="translate(-90.31 498.47) rotate(-90)" style="fill:#ebebeb"></rect><rect x="203.26" y="284.1" width="1.64" height="8.92" transform="translate(-84.48 492.64) rotate(-90)" style="fill:#ebebeb"></rect><rect x="114.98" y="279.82" width="45.34" height="8.92" transform="translate(-176.28 249.48) rotate(-57.84)" style="fill:#E3E3E3"></rect><rect x="143.93" y="266.48" width="4.23" height="8.92" transform="translate(-161.07 250.34) rotate(-57.84)" style="fill:#ebebeb"></rect><rect x="129.57" y="289.31" width="4.23" height="8.92" transform="translate(-187.1 248.87) rotate(-57.84)" style="fill:#ebebeb"></rect><rect x="133.97" y="284.38" width="1.64" height="8.92" transform="translate(-181.48 249.19) rotate(-57.84)" style="fill:#ebebeb"></rect><rect x="470" y="182.39" width="155.34" height="176.47" style="fill:#a6a6a6"></rect><rect x="470" y="236.96" width="155.34" height="3.75" style="fill:#c7c7c7"></rect><rect x="470" y="296.1" width="155.34" height="3.75" style="fill:#c7c7c7"></rect><rect x="470" y="355.14" width="155.34" height="3.75" style="fill:#c7c7c7"></rect><rect x="462.59" y="176.73" width="7.41" height="182.13" style="fill:#c7c7c7"></rect><rect x="625.34" y="176.73" width="7.41" height="182.13" style="fill:#c7c7c7"></rect><rect x="481.33" y="197.45" width="25.08" height="39.51" style="fill:#455a64"></rect><rect x="475.46" y="197.45" width="5.86" height="39.51" style="fill:#37474f"></rect><rect x="475.46" y="202.19" width="5.86" height="3.32" style="fill:#263238"></rect><rect x="475.46" y="207.26" width="5.86" height="1.44" style="fill:#263238"></rect><rect x="475.46" y="228.4" width="5.86" height="3.32" transform="translate(956.79 460.12) rotate(180)" style="fill:#263238"></rect><rect x="475.46" y="225.21" width="5.86" height="1.43" transform="translate(956.79 451.85) rotate(180)" style="fill:#263238"></rect><rect x="486.45" y="202.19" width="14.83" height="6.51" style="fill:#fff"></rect><rect x="519.15" y="197.45" width="25.08" height="39.51" style="fill:#37474f"></rect><rect x="513.29" y="197.45" width="5.86" height="39.51" style="fill:#263238"></rect><rect x="513.29" y="207.98" width="5.86" height="1.44" style="fill:#37474f"></rect><rect x="513.29" y="211.81" width="5.86" height="3.32" transform="translate(1032.44 426.93) rotate(180)" style="fill:#37474f"></rect><rect x="513.29" y="225.21" width="5.86" height="1.43" transform="translate(1032.44 451.85) rotate(180)" style="fill:#37474f"></rect><rect x="519.15" y="207.98" width="25.08" height="1.44" style="fill:#455a64"></rect><rect x="519.15" y="211.81" width="25.08" height="3.32" transform="translate(1063.38 426.93) rotate(180)" style="fill:#455a64"></rect><rect x="519.15" y="225.21" width="25.08" height="1.43" transform="translate(1063.38 451.85) rotate(180)" style="fill:#455a64"></rect><rect x="556.97" y="197.45" width="25.08" height="39.51" style="fill:#ebebeb"></rect><rect x="551.11" y="197.45" width="5.86" height="39.51" style="fill:#dbdbdb"></rect><rect x="553.03" y="203.83" width="2.02" height="26.75" style="fill:#263238"></rect><rect x="563.24" y="203.83" width="12.54" height="1.61" style="fill:#fff"></rect><rect x="594.8" y="197.45" width="25.08" height="39.51" style="fill:#E3E3E3"></rect><rect x="588.93" y="197.45" width="5.86" height="39.51" style="fill:#E3E3E3"></rect><rect x="588.93" y="197.45" width="5.86" height="39.51" style="opacity:0.1"></rect><rect x="588.93" y="230.75" width="5.86" height="3.32" transform="translate(1183.73 464.81) rotate(180)" style="fill:#fff"></rect><rect x="588.93" y="227.55" width="5.86" height="1.44" transform="translate(1183.73 456.54) rotate(180)" style="fill:#fff"></rect><rect x="588.93" y="201.82" width="5.86" height="1.44" transform="translate(1183.73 405.08) rotate(180)" style="fill:#fff"></rect><rect x="611.84" y="230.81" width="5.12" height="3.26" style="fill:#fff"></rect><rect x="481.33" y="256.49" width="25.08" height="39.51" style="fill:#ebebeb"></rect><rect x="475.46" y="256.49" width="5.86" height="39.51" style="fill:#dbdbdb"></rect><rect x="475.46" y="287.44" width="5.86" height="0.72" transform="translate(956.79 575.6) rotate(180)" style="fill:#263238"></rect><rect x="475.46" y="289.1" width="5.86" height="0.72" transform="translate(956.79 578.92) rotate(180)" style="fill:#263238"></rect><rect x="475.46" y="261.94" width="5.86" height="0.72" transform="translate(956.79 524.6) rotate(180)" style="fill:#263238"></rect><rect x="475.46" y="263.6" width="5.86" height="0.72" transform="translate(956.79 527.92) rotate(180)" style="fill:#263238"></rect><circle cx="478.39" cy="267.74" r="1.43" style="fill:#263238"></circle><rect x="519.15" y="256.49" width="25.08" height="39.51" style="fill:#E3E3E3"></rect><rect x="513.29" y="256.49" width="5.86" height="39.51" style="fill:#E3E3E3"></rect><rect x="513.29" y="256.49" width="5.86" height="39.51" style="opacity:0.1"></rect><rect x="513.29" y="261.23" width="5.86" height="3.32" style="fill:#263238"></rect><rect x="513.29" y="266.3" width="5.86" height="1.43" style="fill:#263238"></rect><rect x="513.29" y="287.44" width="5.86" height="3.32" transform="translate(1032.44 578.2) rotate(180)" style="fill:#263238"></rect><rect x="513.29" y="284.25" width="5.86" height="1.44" transform="translate(1032.44 569.93) rotate(180)" style="fill:#263238"></rect><rect x="524.28" y="284.19" width="14.83" height="6.51" style="fill:#fff"></rect><rect x="556.97" y="256.49" width="25.08" height="39.51" style="fill:#37474f"></rect><rect x="551.11" y="256.49" width="5.86" height="39.51" style="fill:#263238"></rect><rect x="551.11" y="266.3" width="5.86" height="1.43" style="fill:#455a64"></rect><rect x="551.11" y="284.25" width="5.86" height="1.44" transform="translate(1108.08 569.93) rotate(180)" style="fill:#455a64"></rect><rect x="552.9" y="269.91" width="2.14" height="12.28" style="fill:#fff"></rect><rect x="563.3" y="269.12" width="12.42" height="3.05" style="fill:#455a64"></rect><rect x="594.8" y="256.49" width="25.08" height="39.51" style="fill:#455a64"></rect><rect x="588.93" y="256.49" width="5.86" height="39.51" style="fill:#37474f"></rect><rect x="588.93" y="261.23" width="5.86" height="3.32" style="fill:#263238"></rect><rect x="588.93" y="266.3" width="5.86" height="1.43" style="fill:#263238"></rect><rect x="588.93" y="287.44" width="30.94" height="3.32" transform="translate(1208.81 578.2) rotate(180)" style="fill:#263238"></rect><rect x="588.93" y="284.25" width="30.94" height="1.43" transform="translate(1208.81 569.93) rotate(180)" style="fill:#263238"></rect><rect x="481.33" y="315.63" width="25.08" height="39.51" style="fill:#455a64"></rect><rect x="475.46" y="315.63" width="5.86" height="39.51" style="fill:#37474f"></rect><rect x="475.46" y="325.44" width="5.86" height="19.38" style="fill:#263238"></rect><rect x="475.46" y="348.26" width="5.86" height="1.89" transform="translate(956.79 698.4) rotate(180)" style="fill:#263238"></rect><rect x="475.46" y="320.62" width="5.86" height="1.89" transform="translate(956.79 643.12) rotate(180)" style="fill:#263238"></rect><rect x="487.53" y="348.26" width="12.67" height="1.89" style="fill:#37474f"></rect><rect x="519.15" y="315.63" width="25.08" height="39.51" style="fill:#ebebeb"></rect><rect x="513.29" y="315.63" width="5.86" height="39.51" style="fill:#dbdbdb"></rect><rect x="513.29" y="320.36" width="5.86" height="3.32" style="fill:#263238"></rect><rect x="513.29" y="317.5" width="5.86" height="1.44" style="fill:#263238"></rect><rect x="556.97" y="315.63" width="25.08" height="39.51" style="fill:#E3E3E3"></rect><rect x="551.11" y="315.63" width="5.86" height="39.51" style="fill:#E3E3E3"></rect><rect x="551.11" y="315.63" width="5.86" height="39.51" style="opacity:0.1"></rect><rect x="551.11" y="325.44" width="5.86" height="1.44" style="fill:#263238"></rect><rect x="556.97" y="325.44" width="25.08" height="1.44" style="fill:#37474f"></rect><rect x="551.11" y="336.66" width="5.86" height="13.23" transform="translate(1108.08 686.55) rotate(180)" style="fill:#263238"></rect><rect x="556.97" y="336.66" width="25.08" height="13.23" transform="translate(1139.03 686.55) rotate(180)" style="fill:#37474f"></rect><rect x="594.8" y="315.63" width="25.08" height="39.51" style="fill:#37474f"></rect><rect x="588.93" y="315.63" width="5.86" height="39.51" style="fill:#263238"></rect><rect x="588.93" y="318.72" width="5.86" height="1.44" style="fill:#455a64"></rect><rect x="588.93" y="351.47" width="5.86" height="1.43" style="fill:#455a64"></rect><rect x="588.93" y="330.98" width="5.86" height="1.43" style="fill:#455a64"></rect><rect x="588.93" y="333.8" width="5.86" height="0.4" style="fill:#455a64"></rect><rect x="588.93" y="335.58" width="5.86" height="0.4" style="fill:#455a64"></rect><rect x="588.93" y="341.44" width="5.86" height="1.44" style="fill:#455a64"></rect><rect x="588.93" y="344.26" width="5.86" height="0.4" style="fill:#455a64"></rect><rect x="588.93" y="346.04" width="5.86" height="0.4" style="fill:#455a64"></rect><rect x="515.76" y="327.6" width="0.92" height="18.11" style="fill:#263238"></rect><rect x="504.16" y="160.2" width="91.4" height="31.65" style="fill:#E3E3E3"></rect><path d="M513.49,175.78v0a2.73,2.73,0,0,1,5.45,0v0a2.73,2.73,0,0,1-5.45,0Z" style="fill:#fff"></path><path d="M527.78,179.19a1,1,0,0,1,1.41-.13,6.3,6.3,0,0,0,3.68,1.48,4.2,4.2,0,0,0,2.41-.71,1.73,1.73,0,0,0,.83-1.39,1.1,1.1,0,0,0-.18-.62,1.7,1.7,0,0,0-.57-.57,7.65,7.65,0,0,0-2.64-.91h0a10.53,10.53,0,0,1-2.49-.75,4.13,4.13,0,0,1-1.79-1.51,2.94,2.94,0,0,1-.45-1.58,3.54,3.54,0,0,1,1.55-2.81,5.65,5.65,0,0,1,3.33-1,7.51,7.51,0,0,1,4.2,1.55,1,1,0,0,1-1.1,1.66,5.54,5.54,0,0,0-3.1-1.24,3.65,3.65,0,0,0-2.16.66,1.52,1.52,0,0,0-.73,1.21,1,1,0,0,0,.13.54,1.79,1.79,0,0,0,.52.5,6.6,6.6,0,0,0,2.41.85h0a11.39,11.39,0,0,1,2.66.81,4.55,4.55,0,0,1,1.93,1.6,3.11,3.11,0,0,1,.46,1.64,3.72,3.72,0,0,1-1.65,3,6.08,6.08,0,0,1-3.57,1.1,8.32,8.32,0,0,1-4.94-1.93A1,1,0,0,1,527.78,179.19Z" style="fill:#fff"></path><path d="M547.66,179.37H543l-1,2.5a1.08,1.08,0,0,1-1,.68,1.06,1.06,0,0,1-1-1.45l4.27-11.36a1.11,1.11,0,0,1,2,0l4.26,11.36a1.09,1.09,0,0,1-.63,1.39,1.06,1.06,0,0,1-.37.06,1,1,0,0,1-1-.68Zm-.79-2.12-1.56-4.15-1.56,4.15Z" style="fill:#fff"></path><path d="M553.24,181.49V170.11a1.05,1.05,0,0,1,1.06-1.06,1.08,1.08,0,0,1,1.08,1.06v10.3h5.22a1.07,1.07,0,0,1,0,2.14h-6.3A1.05,1.05,0,0,1,553.24,181.49Z" style="fill:#fff"></path><path d="M564.09,181.49V170.11a1.05,1.05,0,0,1,1.07-1.06h6.3a1.07,1.07,0,0,1,1.06,1.06,1.08,1.08,0,0,1-1.06,1.08h-5.22v3.53h4.49a1.07,1.07,0,0,1,0,2.14h-4.49v3.55h5.22a1.07,1.07,0,0,1,0,2.14h-6.25s0,0,0,0v0A1.06,1.06,0,0,1,564.09,181.49Z" style="fill:#fff"></path><path d="M581.45,175.78v0a2.73,2.73,0,0,1,5.46,0v0a2.73,2.73,0,0,1-5.46,0Z" style="fill:#fff"></path></g><g id="freepik--Bookshop--inject-85"><g style="opacity:0.5"><polygon points="328.37 135.1 328.37 150.56 120.05 358.88 104.43 358.88 104.43 343.7 313.03 135.1 328.37 135.1" style="fill:#ebebeb"></polygon><polygon points="157.81 135.1 104.43 188.5 104.43 157.69 127.02 135.1 157.81 135.1" style="fill:#ebebeb"></polygon><polygon points="301.8 135.1 104.43 332.47 104.43 319.63 288.96 135.1 301.8 135.1" style="fill:#ebebeb"></polygon><polygon points="328.37 244.88 328.37 257.72 227.2 358.88 214.36 358.88 328.37 244.88" style="fill:#ebebeb"></polygon><polygon points="230.79 135.1 104.43 261.47 104.43 254.78 224.1 135.1 230.79 135.1" style="fill:#ebebeb"></polygon><polygon points="328.37 314.83 328.37 321.51 291 358.88 284.32 358.88 328.37 314.83" style="fill:#ebebeb"></polygon><polygon points="328.37 200.27 328.37 206.96 176.44 358.88 169.75 358.88 328.37 200.27" style="fill:#ebebeb"></polygon></g><rect x="200.26" y="99.8" width="3.66" height="180.66" transform="translate(392.22 -11.96) rotate(90)" style="fill:#455a64"></rect><rect x="200.26" y="182.5" width="3.66" height="180.66" transform="translate(474.92 70.74) rotate(90)" style="fill:#455a64"></rect><polygon points="328.37 178.61 328.37 174.95 299.75 188.3 299.75 191.96 328.37 178.61" style="fill:#455a64"></polygon><polygon points="328.37 261.31 328.37 257.65 299.75 271 299.75 274.66 328.37 261.31" style="fill:#455a64"></polygon><rect x="104.43" y="135.1" width="7.33" height="223.78" style="fill:#455a64"></rect><rect x="104.43" y="135.1" width="7.33" height="17.34" style="fill:#263238"></rect><rect x="169.54" y="135.1" width="3.66" height="223.78" style="fill:#455a64"></rect><rect x="169.53" y="135.1" width="3.66" height="17.34" style="fill:#263238"></rect><rect x="230.98" y="135.1" width="3.66" height="223.78" style="fill:#455a64"></rect><rect x="230.98" y="135.1" width="3.66" height="17.34" style="fill:#263238"></rect><rect x="292.42" y="135.1" width="7.33" height="223.78" style="fill:#455a64"></rect><rect x="292.42" y="135.1" width="7.33" height="17.34" style="fill:#263238"></rect><polygon points="328.37 135.1 321.04 135.1 321.04 348.87 328.37 345.42 328.37 135.1" style="fill:#455a64"></polygon><rect x="321.04" y="135.1" width="7.33" height="17.34" style="fill:#263238"></rect><polygon points="328.37 417.44 299.75 430.9 299.75 369.58 328.37 356.12 328.37 417.44" style="fill:#455a64"></polygon><polygon points="328.37 356.12 299.75 369.58 299.75 358.88 328.37 345.42 328.37 356.12" style="fill:#455a64"></polygon><polygon points="328.37 356.12 328.37 362.26 299.75 375.73 299.75 369.58 328.37 356.12" style="fill:#263238"></polygon><path d="M304.65,409.38c-.08-1.94-.12-3.9-.17-5.84s-.1-3.91-.14-5.86c-.07-3.91-.12-7.83-.17-11.76v-.68l.34-.16c1.54-.74,3.08-1.51,4.62-2.21s3.08-1.42,4.62-2.1,3.08-1.35,4.62-2c.78-.33,1.55-.62,2.32-.92s1.54-.6,2.31-.87c-.77.46-1.54.89-2.31,1.32s-1.54.87-2.31,1.27q-2.31,1.25-4.62,2.4t-4.62,2.27c-1.54.76-3.08,1.45-4.62,2.17l.33-.84c0,3.94,0,7.89,0,11.85,0,2,0,4-.07,6S304.7,407.38,304.65,409.38Z" style="fill:#37474f"></path><path d="M326.33,381.56c.07,1.94.12,3.9.17,5.84s.09,3.91.13,5.86c.08,3.91.13,7.83.17,11.76v.68l-.34.16c-1.56.74-3.11,1.52-4.67,2.23s-3.11,1.44-4.67,2.13-3.11,1.36-4.67,2c-.78.33-1.56.62-2.34.93s-1.55.61-2.33.88c.78-.47,1.55-.9,2.33-1.33s1.56-.88,2.34-1.29c1.55-.83,3.11-1.64,4.66-2.42s3.12-1.55,4.67-2.29,3.11-1.46,4.67-2.19l-.34.84q0-5.93,0-11.86c0-2,0-4,.07-6S326.28,383.56,326.33,381.56Z" style="fill:#37474f"></path><path d="M307.27,403.67c-.11-2.41-.19-4.83-.26-7.25,0-1.22-.05-2.44-.08-3.65s0-2.44-.06-3.66v-.63l.33-.17c1.14-.6,2.28-1.13,3.42-1.68s2.28-1.06,3.43-1.55,2.28-1,3.42-1.4,2.28-.86,3.43-1.2c-1.14.73-2.28,1.4-3.42,2s-2.29,1.25-3.43,1.83-2.28,1.14-3.42,1.7-2.28,1.07-3.42,1.56l.32-.81c0,1.24,0,2.46,0,3.7s0,2.47-.05,3.71Q307.41,399.92,307.27,403.67Z" style="fill:#37474f"></path><path d="M323.7,387.27c.12,2.41.2,4.82.26,7.25s.12,4.87.15,7.31v.63l-.33.17c-1.15.6-2.31,1.14-3.46,1.7s-2.31,1.07-3.46,1.56-2.3,1-3.46,1.42-2.31.87-3.46,1.22c1.15-.74,2.3-1.42,3.46-2.06s2.3-1.27,3.45-1.85,2.31-1.15,3.46-1.71,2.31-1.09,3.46-1.58l-.32.81c0-2.47,0-4.93.07-7.41S323.62,389.77,323.7,387.27Z" style="fill:#37474f"></path><rect x="104.43" y="369.58" width="195.32" height="61.32" style="fill:#455a64"></rect><path d="M180.25,410.61c-.12-2-.19-3.93-.28-5.9s-.14-3.94-.2-5.9q-.15-5.91-.2-11.81v-.68h.69c3.09,0,6.18-.05,9.27,0s6.17,0,9.26.08,6.18.11,9.27.21c1.55,0,3.09.12,4.63.18s3.09.13,4.64.23c-1.55.09-3.09.16-4.64.22s-3.08.14-4.63.18q-4.63.15-9.27.22c-3.09.05-6.17.08-9.26.08s-6.18,0-9.27,0l.68-.68q-.06,5.89-.2,11.81c-.07,2-.11,3.93-.2,5.9S180.37,408.65,180.25,410.61Z" style="fill:#37474f"></path><path d="M223.93,393.11c.13,2,.19,3.94.28,5.9s.14,3.94.2,5.91q.15,5.9.2,11.81v.68h-.69c-3.12,0-6.24,0-9.36,0s-6.24,0-9.36-.08-6.24-.12-9.37-.22c-1.56,0-3.12-.12-4.68-.18s-3.12-.13-4.68-.22c1.56-.1,3.12-.17,4.68-.23s3.12-.14,4.68-.18c3.13-.1,6.25-.16,9.37-.21s6.24-.08,9.36-.09,6.24,0,9.36,0l-.68.69c0-3.94.1-7.88.21-11.81.06-2,.11-3.94.2-5.91S223.81,395.08,223.93,393.11Z" style="fill:#37474f"></path><path d="M185.57,406.16c-.21-2.45-.34-4.9-.44-7.35-.06-1.23-.09-2.46-.13-3.68s-.05-2.45-.08-3.68l0-.64h.67c2.29-.05,4.58-.05,6.87-.06s4.57,0,6.86.08,4.58.11,6.87.21,4.57.23,6.86.42c-2.29.2-4.57.33-6.86.42s-4.58.18-6.87.22-4.58.05-6.86.07-4.58,0-6.87-.06l.65-.65c0,1.23,0,2.45-.08,3.68s-.07,2.45-.13,3.68C185.91,401.26,185.77,403.71,185.57,406.16Z" style="fill:#37474f"></path><path d="M218.61,397.56c.21,2.45.34,4.91.44,7.36s.17,4.9.21,7.35v.64h-.66c-2.31.06-4.62.05-6.93.06s-4.63,0-6.94-.07-4.63-.11-6.94-.21-4.62-.23-6.93-.43c2.31-.19,4.62-.32,6.93-.42s4.63-.18,6.94-.21,4.62-.06,6.94-.08,4.62,0,6.93.06l-.65.65q.06-3.67.21-7.35C218.27,402.47,218.41,400,218.61,397.56Z" style="fill:#37474f"></path><path d="M239.42,410.61c-.12-2-.19-3.93-.27-5.9s-.14-3.94-.2-5.9c-.11-3.94-.17-7.88-.21-11.81v-.68h.69c3.09,0,6.18-.05,9.27,0s6.18,0,9.27.08,6.18.11,9.27.21c1.54,0,3.09.12,4.63.18s3.09.13,4.63.23c-1.54.09-3.09.16-4.63.22s-3.09.14-4.63.18q-4.64.15-9.27.22t-9.27.08c-3.09,0-6.18,0-9.27,0l.69-.68c-.05,3.93-.11,7.87-.21,11.81-.06,2-.11,3.93-.2,5.9S239.55,408.65,239.42,410.61Z" style="fill:#37474f"></path><path d="M283.11,393.11c.12,2,.19,3.94.27,5.9s.14,3.94.2,5.91c.11,3.93.17,7.87.21,11.81v.68h-.69c-3.12,0-6.24,0-9.36,0s-6.25,0-9.37-.08-6.24-.12-9.36-.22c-1.56,0-3.12-.12-4.68-.18s-3.12-.13-4.68-.22c1.56-.1,3.12-.17,4.68-.23s3.12-.14,4.68-.18c3.12-.1,6.24-.16,9.36-.21s6.24-.08,9.37-.09,6.24,0,9.36,0l-.68.69q.06-5.91.2-11.81c.06-2,.11-3.94.2-5.91S283,395.08,283.11,393.11Z" style="fill:#37474f"></path><path d="M244.74,406.16c-.2-2.45-.34-4.9-.44-7.35-.06-1.23-.08-2.46-.12-3.68s-.06-2.45-.09-3.68v-.64h.66c2.29-.05,4.58-.05,6.87-.06s4.58,0,6.87.08,4.57.11,6.86.21,4.58.23,6.87.42c-2.29.2-4.58.33-6.87.42s-4.57.18-6.86.22-4.58.05-6.87.07-4.58,0-6.87-.06l.66-.65c0,1.23,0,2.45-.09,3.68s-.06,2.45-.12,3.68C245.09,401.26,245,403.71,244.74,406.16Z" style="fill:#37474f"></path><path d="M277.79,397.56c.2,2.45.34,4.91.44,7.36s.17,4.9.21,7.35v.64h-.66c-2.31.06-4.63.05-6.94.06s-4.62,0-6.94-.07-4.62-.11-6.93-.21-4.63-.23-6.94-.43c2.31-.19,4.63-.32,6.94-.42s4.62-.18,6.93-.21,4.63-.06,6.94-.08,4.63,0,6.94.06l-.65.65q.06-3.67.21-7.35C277.45,402.47,277.58,400,277.79,397.56Z" style="fill:#37474f"></path><path d="M121.07,410.61c-.12-2-.19-3.93-.27-5.9s-.14-3.94-.2-5.9c-.11-3.94-.17-7.88-.21-11.81v-.68h.69c3.09,0,6.18-.05,9.27,0s6.18,0,9.27.08,6.18.11,9.27.21c1.54,0,3.08.12,4.63.18s3.09.13,4.63.23c-1.54.09-3.09.16-4.63.22s-3.09.14-4.63.18q-4.63.15-9.27.22t-9.27.08c-3.09,0-6.18,0-9.27,0l.69-.68c-.05,3.93-.11,7.87-.21,11.81-.06,2-.11,3.93-.2,5.9S121.2,408.65,121.07,410.61Z" style="fill:#37474f"></path><path d="M164.76,393.11c.12,2,.19,3.94.27,5.9s.14,3.94.2,5.91c.11,3.93.17,7.87.21,11.81v.68h-.69c-3.12,0-6.24,0-9.37,0s-6.24,0-9.36-.08-6.24-.12-9.36-.22c-1.56,0-3.12-.12-4.68-.18s-3.12-.13-4.68-.22c1.56-.1,3.12-.17,4.68-.23s3.12-.14,4.68-.18c3.12-.1,6.24-.16,9.36-.21s6.24-.08,9.36-.09,6.25,0,9.37,0l-.68.69q.06-5.91.2-11.81c.06-2,.11-3.94.2-5.91S164.63,395.08,164.76,393.11Z" style="fill:#37474f"></path><path d="M126.39,406.16c-.2-2.45-.34-4.9-.44-7.35-.06-1.23-.08-2.46-.13-3.68s0-2.45-.08-3.68v-.64h.66c2.29-.05,4.58-.05,6.87-.06s4.58,0,6.87.08,4.57.11,6.86.21,4.58.23,6.87.42c-2.29.2-4.58.33-6.87.42s-4.58.18-6.86.22-4.58.05-6.87.07-4.58,0-6.87-.06l.66-.65c0,1.23,0,2.45-.09,3.68s-.06,2.45-.13,3.68C126.74,401.26,126.6,403.71,126.39,406.16Z" style="fill:#37474f"></path><path d="M159.44,397.56c.2,2.45.34,4.91.44,7.36s.17,4.9.21,7.35v.64h-.66c-2.32.06-4.63.05-6.94.06s-4.62,0-6.94-.07-4.62-.11-6.93-.21-4.63-.23-6.94-.43c2.31-.19,4.62-.32,6.94-.42s4.62-.18,6.93-.21,4.63-.06,6.94-.08,4.62,0,6.94.06l-.65.65q.06-3.67.21-7.35C159.1,402.47,159.23,400,159.44,397.56Z" style="fill:#37474f"></path><rect x="98.29" y="358.88" width="201.46" height="10.7" style="fill:#455a64"></rect><rect x="104.43" y="369.58" width="195.32" height="6.15" style="fill:#263238"></rect><polygon points="421.61 417.44 450.24 430.9 450.24 369.58 421.61 356.12 421.61 417.44" style="fill:#455a64"></polygon><polygon points="421.61 356.12 450.24 369.58 450.24 358.88 421.61 345.42 421.61 356.12" style="fill:#455a64"></polygon><polygon points="421.61 356.12 421.61 362.26 450.24 375.73 450.24 369.58 421.61 356.12" style="fill:#263238"></polygon><path d="M445.34,409.38c.07-1.94.11-3.9.17-5.84s.09-3.91.13-5.86q.11-5.87.17-11.76v-.68l-.35-.16c-1.54-.74-3.08-1.51-4.62-2.21s-3.08-1.42-4.62-2.1-3.08-1.35-4.62-2c-.77-.33-1.54-.62-2.31-.92s-1.54-.6-2.32-.87c.77.46,1.54.89,2.31,1.32s1.54.87,2.31,1.27q2.31,1.25,4.62,2.4t4.62,2.27c1.55.76,3.09,1.45,4.63,2.17l-.34-.84q0,5.91,0,11.85c0,2,0,4,.06,6S445.29,407.38,445.34,409.38Z" style="fill:#37474f"></path><path d="M423.65,381.56c-.07,1.94-.12,3.9-.17,5.84s-.09,3.91-.13,5.86c-.08,3.91-.13,7.83-.17,11.76v.68l.34.16c1.56.74,3.12,1.52,4.67,2.23s3.12,1.44,4.67,2.13,3.12,1.36,4.67,2c.78.33,1.56.62,2.34.93s1.56.61,2.33.88c-.77-.47-1.55-.9-2.33-1.33s-1.55-.88-2.33-1.29c-1.56-.83-3.11-1.64-4.67-2.42s-3.11-1.55-4.67-2.29-3.11-1.46-4.67-2.19l.34.84q0-5.93,0-11.86c0-2,0-4-.06-6S423.7,383.56,423.65,381.56Z" style="fill:#37474f"></path><path d="M442.71,403.67q.17-3.62.26-7.25c0-1.22.06-2.44.08-3.65s.05-2.44.07-3.66v-.63l-.33-.17c-1.15-.6-2.29-1.13-3.43-1.68s-2.28-1.06-3.42-1.55-2.29-1-3.43-1.4-2.28-.86-3.42-1.2c1.14.73,2.28,1.4,3.42,2s2.28,1.25,3.42,1.83,2.28,1.14,3.42,1.7,2.29,1.07,3.43,1.56l-.32-.81c0,1.24,0,2.46,0,3.7s0,2.47,0,3.71C442.57,398.68,442.62,401.17,442.71,403.67Z" style="fill:#37474f"></path><path d="M426.28,387.27c-.12,2.41-.2,4.82-.26,7.25s-.11,4.87-.15,7.31v.63l.33.17c1.16.6,2.31,1.14,3.46,1.7s2.31,1.07,3.46,1.56,2.31,1,3.46,1.42,2.31.87,3.46,1.22c-1.15-.74-2.3-1.42-3.45-2.06s-2.31-1.27-3.46-1.85-2.31-1.15-3.46-1.71-2.31-1.09-3.46-1.58l.32.81c0-2.47,0-4.93-.06-7.41S426.37,389.77,426.28,387.27Z" style="fill:#37474f"></path><rect x="450.23" y="369.58" width="195.32" height="61.32" transform="translate(1095.78 800.48) rotate(180)" style="fill:#455a64"></rect><path d="M569.73,410.61c.13-2,.19-3.93.28-5.9s.14-3.94.2-5.9q.15-5.91.21-11.81v-.68h-.69c-3.08,0-6.17-.05-9.26,0s-6.18,0-9.27.08-6.18.11-9.27.21c-1.54,0-3.09.12-4.63.18s-3.09.13-4.64.23c1.55.09,3.09.16,4.64.22s3.09.14,4.63.18q4.64.15,9.27.22t9.27.08c3.09,0,6.18,0,9.26,0l-.68-.68c0,3.93.1,7.87.21,11.81.06,2,.1,3.93.2,5.9S569.61,408.65,569.73,410.61Z" style="fill:#37474f"></path><path d="M526.05,393.11c-.12,2-.19,3.94-.27,5.9s-.14,3.94-.2,5.91c-.11,3.93-.17,7.87-.21,11.81v.68h.69c3.12,0,6.24,0,9.36,0s6.25,0,9.37-.08,6.24-.12,9.36-.22c1.56,0,3.12-.12,4.68-.18s3.12-.13,4.68-.22c-1.56-.1-3.12-.17-4.68-.23s-3.12-.14-4.68-.18c-3.12-.1-6.24-.16-9.36-.21s-6.25-.08-9.37-.09-6.24,0-9.36,0l.68.69q-.06-5.91-.2-11.81c-.07-2-.11-3.94-.2-5.91S526.17,395.08,526.05,393.11Z" style="fill:#37474f"></path><path d="M564.41,406.16c.21-2.45.35-4.9.44-7.35.06-1.23.09-2.46.13-3.68s.06-2.45.09-3.68v-.64h-.67c-2.29-.05-4.57-.05-6.86-.06s-4.58,0-6.87.08-4.58.11-6.86.21-4.58.23-6.87.42c2.29.2,4.58.33,6.87.42s4.57.18,6.86.22,4.58.05,6.87.07,4.57,0,6.86-.06l-.65-.65c0,1.23,0,2.45.08,3.68s.07,2.45.13,3.68C564.07,401.26,564.21,403.71,564.41,406.16Z" style="fill:#37474f"></path><path d="M531.37,397.56c-.2,2.45-.34,4.91-.44,7.36s-.17,4.9-.21,7.35v.64h.66c2.31.06,4.63.05,6.94.06s4.62,0,6.93-.07,4.63-.11,6.94-.21,4.63-.23,6.94-.43c-2.31-.19-4.63-.32-6.94-.42s-4.62-.18-6.94-.21-4.62-.06-6.93-.08-4.63,0-6.94.06l.65.65q-.06-3.67-.21-7.35C531.71,402.47,531.57,400,531.37,397.56Z" style="fill:#37474f"></path><path d="M510.56,410.61c.12-2,.19-3.93.28-5.9s.13-3.94.2-5.9q.15-5.91.2-11.81v-.68h-.69c-3.09,0-6.18-.05-9.27,0s-6.18,0-9.27.08-6.17.11-9.26.21c-1.55,0-3.09.12-4.64.18s-3.09.13-4.63.23c1.54.09,3.09.16,4.63.22s3.09.14,4.64.18c3.09.1,6.17.17,9.26.22s6.18.08,9.27.08,6.18,0,9.27,0l-.68-.68q.06,5.89.2,11.81c.06,2,.11,3.93.2,5.9S510.44,408.65,510.56,410.61Z" style="fill:#37474f"></path><path d="M466.88,393.11c-.13,2-.19,3.94-.28,5.9s-.14,3.94-.2,5.91c-.1,3.93-.16,7.87-.21,11.81v.68h.69c3.12,0,6.24,0,9.36,0s6.24,0,9.36-.08,6.24-.12,9.36-.22c1.56,0,3.12-.12,4.68-.18s3.13-.13,4.69-.22c-1.56-.1-3.12-.17-4.69-.23s-3.12-.14-4.68-.18c-3.12-.1-6.24-.16-9.36-.21s-6.24-.08-9.36-.09-6.24,0-9.36,0l.68.69c-.05-3.94-.11-7.88-.21-11.81-.06-2-.11-3.94-.2-5.91S467,395.08,466.88,393.11Z" style="fill:#37474f"></path><path d="M505.24,406.16c.2-2.45.34-4.9.44-7.35.06-1.23.09-2.46.13-3.68s.05-2.45.08-3.68v-.64h-.66c-2.29-.05-4.58-.05-6.87-.06s-4.57,0-6.86.08-4.58.11-6.87.21-4.58.23-6.87.42c2.29.2,4.58.33,6.87.42s4.58.18,6.87.22,4.57.05,6.86.07,4.58,0,6.87-.06l-.65-.65c0,1.23,0,2.45.08,3.68s.07,2.45.13,3.68C504.9,401.26,505,403.71,505.24,406.16Z" style="fill:#37474f"></path><path d="M472.2,397.56c-.21,2.45-.35,4.91-.44,7.36s-.17,4.9-.21,7.35v.64h.66c2.31.06,4.62.05,6.93.06s4.63,0,6.94-.07,4.62-.11,6.94-.21,4.62-.23,6.93-.43c-2.31-.19-4.62-.32-6.93-.42s-4.63-.18-6.94-.21-4.63-.06-6.94-.08-4.62,0-6.93.06l.65.65q-.06-3.67-.22-7.35C472.54,402.47,472.4,400,472.2,397.56Z" style="fill:#37474f"></path><path d="M628.91,410.61c.12-2,.19-3.93.28-5.9s.13-3.94.2-5.9q.15-5.91.2-11.81v-.68h-.69c-3.09,0-6.18-.05-9.27,0s-6.18,0-9.27.08-6.17.11-9.26.21c-1.55,0-3.09.12-4.64.18s-3.09.13-4.63.23c1.54.09,3.09.16,4.63.22s3.09.14,4.64.18q4.64.15,9.26.22t9.27.08c3.09,0,6.18,0,9.27,0l-.68-.68q.06,5.89.2,11.81c.06,2,.11,3.93.2,5.9S628.79,408.65,628.91,410.61Z" style="fill:#37474f"></path><path d="M585.23,393.11c-.13,2-.19,3.94-.28,5.9s-.14,3.94-.2,5.91c-.1,3.93-.16,7.87-.21,11.81v.68h.69c3.12,0,6.24,0,9.36,0s6.24,0,9.36-.08,6.24-.12,9.36-.22c1.56,0,3.12-.12,4.69-.18s3.12-.13,4.68-.22c-1.56-.1-3.12-.17-4.68-.23s-3.13-.14-4.69-.18c-3.12-.1-6.24-.16-9.36-.21s-6.24-.08-9.36-.09-6.24,0-9.36,0l.68.69c0-3.94-.1-7.88-.21-11.81-.06-2-.11-3.94-.2-5.91S585.35,395.08,585.23,393.11Z" style="fill:#37474f"></path><path d="M623.59,406.16c.2-2.45.34-4.9.44-7.35.06-1.23.09-2.46.13-3.68s.05-2.45.08-3.68v-.64h-.66c-2.29-.05-4.58-.05-6.87-.06s-4.57,0-6.86.08-4.58.11-6.87.21-4.58.23-6.86.42c2.28.2,4.57.33,6.86.42s4.58.18,6.87.22,4.57.05,6.86.07,4.58,0,6.87-.06l-.65-.65c0,1.23,0,2.45.08,3.68s.07,2.45.13,3.68C623.25,401.26,623.38,403.71,623.59,406.16Z" style="fill:#37474f"></path><path d="M590.55,397.56c-.21,2.45-.35,4.91-.44,7.36s-.17,4.9-.21,7.35v.64h.66c2.31.06,4.62.05,6.93.06s4.63,0,6.94-.07,4.62-.11,6.94-.21,4.62-.23,6.93-.43c-2.31-.19-4.62-.32-6.93-.42s-4.63-.18-6.94-.21-4.62-.06-6.94-.08-4.62,0-6.93.06l.65.65q-.06-3.67-.22-7.35C590.89,402.47,590.75,400,590.55,397.56Z" style="fill:#37474f"></path><rect x="450.23" y="358.88" width="201.46" height="10.7" transform="translate(1101.93 728.47) rotate(180)" style="fill:#455a64"></rect><rect x="450.24" y="369.58" width="195.32" height="6.15" style="fill:#263238"></rect><g style="opacity:0.5"><polygon points="645.55 139.01 645.55 169.79 456.47 358.88 450.24 358.88 433.53 351.02 645.55 139.01" style="fill:#ebebeb"></polygon><polygon points="530.8 135.1 421.61 244.29 421.61 213.5 500 135.1 530.8 135.1" style="fill:#ebebeb"></polygon><polygon points="557.24 135.1 421.61 270.73 421.61 257.89 544.4 135.1 557.24 135.1" style="fill:#ebebeb"></polygon><polygon points="645.55 257.88 645.55 270.71 557.39 358.88 544.55 358.88 645.55 257.88" style="fill:#ebebeb"></polygon><polygon points="452.39 135.1 421.61 165.88 421.61 159.19 445.71 135.1 452.39 135.1" style="fill:#ebebeb"></polygon><polygon points="645.55 296.8 645.55 303.48 590.16 358.88 583.47 358.88 645.55 296.8" style="fill:#ebebeb"></polygon><polygon points="645.55 182.24 645.55 188.93 475.6 358.88 468.92 358.88 645.55 182.24" style="fill:#ebebeb"></polygon></g><rect x="546.06" y="99.8" width="3.66" height="180.66" transform="translate(738.03 -357.76) rotate(90)" style="fill:#455a64"></rect><rect x="546.06" y="182.5" width="3.66" height="180.66" transform="translate(820.73 -275.07) rotate(90)" style="fill:#455a64"></rect><polygon points="421.61 178.61 421.61 174.95 450.24 188.3 450.24 191.96 421.61 178.61" style="fill:#455a64"></polygon><polygon points="421.61 261.31 421.61 257.65 450.24 271 450.24 274.66 421.61 261.31" style="fill:#455a64"></polygon><rect x="638.23" y="135.1" width="7.33" height="223.78" transform="translate(1283.78 493.99) rotate(180)" style="fill:#455a64"></rect><rect x="638.23" y="135.1" width="7.33" height="17.34" style="fill:#263238"></rect><rect x="576.78" y="135.1" width="3.66" height="223.78" transform="translate(1157.23 493.99) rotate(180)" style="fill:#455a64"></rect><rect x="576.78" y="135.1" width="3.66" height="17.34" style="fill:#263238"></rect><rect x="515.34" y="135.1" width="3.66" height="223.78" transform="translate(1034.35 493.99) rotate(180)" style="fill:#455a64"></rect><rect x="515.34" y="135.1" width="3.66" height="17.34" style="fill:#263238"></rect><rect x="450.24" y="135.1" width="7.33" height="223.78" transform="translate(907.8 493.99) rotate(180)" style="fill:#455a64"></rect><rect x="450.24" y="135.1" width="7.33" height="17.34" style="fill:#263238"></rect><polygon points="421.61 135.1 428.94 135.1 428.94 348.87 421.61 345.42 421.61 135.1" style="fill:#455a64"></polygon><rect x="421.61" y="135.1" width="7.33" height="17.34" style="fill:#263238"></rect><rect x="328.37" y="135.1" width="93.24" height="281.92" style="fill:#263238"></rect><rect x="342.24" y="213.24" width="65.5" height="107.06" style="fill:#fff"></rect><polygon points="407.74 213.24 407.74 226.16 342.24 291.66 342.24 260.63 389.62 213.24 407.74 213.24" style="fill:#ebebeb"></polygon><polygon points="407.74 280.94 407.74 311.94 399.38 320.31 368.36 320.31 407.74 280.94" style="fill:#ebebeb"></polygon><polygon points="407.74 267.33 407.74 273.87 361.3 320.31 354.76 320.31 407.74 267.33" style="fill:#ebebeb"></polygon><polygon points="383.03 213.24 342.24 254.03 342.24 241.19 370.19 213.24 383.03 213.24" style="fill:#ebebeb"></polygon><rect x="348.09" y="332.4" width="49.1" height="11.49" style="fill:#263238"></rect><rect x="409.6" y="325.43" width="5.75" height="18.46" style="fill:#a6a6a6"></rect><path d="M342.93,389.9c-.12-2-.19-3.94-.28-5.91s-.13-3.93-.2-5.9q-.15-5.91-.2-11.81v-.68h.69c3.09,0,6.18-.05,9.27,0s6.18,0,9.27.08,6.17.12,9.26.22c1.55,0,3.09.11,4.64.18s3.09.13,4.63.22c-1.54.1-3.09.16-4.63.23s-3.09.13-4.64.17c-3.09.11-6.18.17-9.26.22s-6.18.08-9.27.08-6.18,0-9.27,0l.68-.68q-.06,5.91-.2,11.81c-.06,2-.11,3.94-.2,5.9S343.05,387.93,342.93,389.9Z" style="fill:#37474f"></path><path d="M406.43,372.39c.12,2,.19,3.94.28,5.91s.13,3.93.2,5.9q.15,5.91.2,11.81v.68h-.69c-3.12,0-6.24.05-9.36,0s-6.24,0-9.36-.08-6.25-.12-9.37-.22c-1.56,0-3.12-.11-4.68-.18s-3.12-.12-4.68-.22c1.56-.1,3.12-.16,4.68-.23s3.12-.13,4.68-.17c3.12-.11,6.24-.17,9.37-.22s6.24-.08,9.36-.08,6.24,0,9.36,0l-.68.68c0-3.94.1-7.87.21-11.81.06-2,.1-3.93.2-5.9S406.31,374.36,406.43,372.39Z" style="fill:#37474f"></path><path d="M348.25,385.44c-.2-2.45-.34-4.9-.44-7.35-.06-1.23-.09-2.45-.13-3.68s-.05-2.45-.08-3.68v-.63l.66,0c2.29-.05,4.58,0,6.87-.06s4.57,0,6.86.08,4.58.11,6.87.21,4.58.23,6.87.42c-2.29.2-4.58.33-6.87.43s-4.58.17-6.87.21-4.57.06-6.86.07-4.58,0-6.87-.05l.65-.66c0,1.23,0,2.46-.08,3.68s-.07,2.45-.13,3.68C348.59,380.54,348.46,383,348.25,385.44Z" style="fill:#37474f"></path><path d="M401.11,376.85c.2,2.45.34,4.9.44,7.35s.17,4.9.21,7.36v.63l-.66,0c-2.31.05-4.62,0-6.94.06s-4.62,0-6.93-.08-4.63-.11-6.94-.21-4.62-.23-6.94-.42c2.32-.2,4.63-.33,6.94-.43s4.63-.17,6.94-.21,4.62-.06,6.93-.07,4.63,0,6.94.06l-.65.65q.06-3.69.21-7.36C400.77,381.75,400.91,379.3,401.11,376.85Z" style="fill:#37474f"></path><rect x="342.24" y="149.27" width="65.5" height="49.75" style="fill:#fff"></rect><polygon points="407.74 149.27 407.74 174.05 382.77 199.02 351.75 199.02 401.49 149.27 407.74 149.27" style="fill:#ebebeb"></polygon><polygon points="371.57 149.27 342.24 178.62 342.24 172.05 365.03 149.27 371.57 149.27" style="fill:#ebebeb"></polygon><polygon points="348.58 149.27 342.24 155.61 342.24 149.27 348.58 149.27" style="fill:#ebebeb"></polygon><polygon points="407.74 182.97 407.74 195.8 404.52 199.02 391.69 199.02 407.74 182.97" style="fill:#ebebeb"></polygon><rect x="98.29" y="124.41" width="553.43" height="10.7" style="fill:#455a64"></rect><rect x="98.29" y="62.83" width="553.43" height="10.7" style="fill:#455a64"></rect><rect x="104.43" y="73.52" width="541.12" height="50.88" style="fill:#263238"></rect><path d="M277.8,99.38v-.06a3.9,3.9,0,0,1,7.8,0v.06a3.9,3.9,0,0,1-7.8,0Z" style="fill:#ebebeb"></path><path d="M298.82,107.53V91.27a1.51,1.51,0,0,1,1.52-1.51h3.91a5.25,5.25,0,0,1,4.19,8.38,5.9,5.9,0,0,1-3.12,10.91h-4.87a0,0,0,0,1,0,0c-.06,0-.06,0-.08,0A1.53,1.53,0,0,1,298.82,107.53Zm3.06-10.3h2.37A2.22,2.22,0,0,0,306.43,95a2.16,2.16,0,0,0-2.18-2.17h-2.37Zm0,8.76h3.44a2.85,2.85,0,0,0,0-5.7h-3.44Z" style="fill:#ebebeb"></path><path d="M330.4,92.16a10.13,10.13,0,0,1,0,13.94,9,9,0,0,1-6.59,3,9.31,9.31,0,0,1-6.75-3,10.26,10.26,0,0,1,0-13.94,9.2,9.2,0,0,1,6.75-3A8.93,8.93,0,0,1,330.4,92.16Zm-.36,7a7.11,7.11,0,0,0-1.87-4.82,5.94,5.94,0,0,0-8.82,0,7,7,0,0,0-1.88,4.82,6.87,6.87,0,0,0,1.88,4.79,5.88,5.88,0,0,0,8.82,0A7,7,0,0,0,330,99.13Z" style="fill:#ebebeb"></path><path d="M353.54,92.16a10.13,10.13,0,0,1,0,13.94,9,9,0,0,1-6.58,3,9.32,9.32,0,0,1-6.76-3,10.29,10.29,0,0,1,0-13.94,9.2,9.2,0,0,1,6.76-3A8.91,8.91,0,0,1,353.54,92.16Zm-.36,7a7.11,7.11,0,0,0-1.87-4.82,5.91,5.91,0,0,0-4.35-2,6,6,0,0,0-4.47,2,7,7,0,0,0-1.87,4.82,6.86,6.86,0,0,0,1.87,4.79,5.88,5.88,0,0,0,8.82,0A7,7,0,0,0,353.18,99.13Z" style="fill:#ebebeb"></path><path d="M360.92,107.53V91.41a1.52,1.52,0,0,1,3,0v7.91l8.93-9a1.51,1.51,0,0,1,2.15,0,1.55,1.55,0,0,1,0,2.15l-6.06,6,6.12,8a1.47,1.47,0,0,1-.22,2.12,1.41,1.41,0,0,1-1,.36,1.5,1.5,0,0,1-1.13-.55l-5.95-7.8L364,103.62v3.91a1.52,1.52,0,1,1-3,0Z" style="fill:#ebebeb"></path><path d="M379.74,104.25a1.44,1.44,0,0,1,2-.19,9,9,0,0,0,5.27,2.12,5.92,5.92,0,0,0,3.44-1,2.45,2.45,0,0,0,1.18-2,1.59,1.59,0,0,0-.24-.88,2.71,2.71,0,0,0-.83-.83,11.25,11.25,0,0,0-3.78-1.3h-.05a14.4,14.4,0,0,1-3.56-1.07A6,6,0,0,1,380.62,97a4.25,4.25,0,0,1-.63-2.26,5.07,5.07,0,0,1,2.2-4A8.15,8.15,0,0,1,387,89.21a10.8,10.8,0,0,1,6,2.2,1.42,1.42,0,0,1,.38,2,1.38,1.38,0,0,1-2,.41A8,8,0,0,0,387,92a5.23,5.23,0,0,0-3.09.94,2.18,2.18,0,0,0-1,1.73,1.32,1.32,0,0,0,.19.77,2.82,2.82,0,0,0,.74.72,9.37,9.37,0,0,0,3.45,1.21h.05a16.71,16.71,0,0,1,3.81,1.16,6.39,6.39,0,0,1,2.75,2.29,4.38,4.38,0,0,1,.66,2.34,5.33,5.33,0,0,1-2.37,4.27A8.62,8.62,0,0,1,387,109a12,12,0,0,1-7.06-2.75A1.47,1.47,0,0,1,379.74,104.25Z" style="fill:#ebebeb"></path><path d="M398.72,107.53V91.27a1.5,1.5,0,0,1,1.52-1.51,1.52,1.52,0,0,1,1.54,1.51v6.62h7.14V91.27a1.49,1.49,0,0,1,1.52-1.51A1.52,1.52,0,0,1,412,91.27v16.26a1.52,1.52,0,0,1-1.54,1.52,1.49,1.49,0,0,1-1.52-1.52v-6.61h-7.14v6.61a1.52,1.52,0,0,1-1.54,1.52A1.5,1.5,0,0,1,398.72,107.53Z" style="fill:#ebebeb"></path><path d="M432.64,92.16a10.1,10.1,0,0,1,0,13.94,9,9,0,0,1-6.58,3,9.29,9.29,0,0,1-6.75-3,10.26,10.26,0,0,1,0-13.94,9.18,9.18,0,0,1,6.75-3A8.91,8.91,0,0,1,432.64,92.16Zm-.35,7a7.12,7.12,0,0,0-1.88-4.82,5.91,5.91,0,0,0-4.35-2,6,6,0,0,0-4.47,2,7,7,0,0,0-1.87,4.82,6.91,6.91,0,0,0,1.87,4.79,5.88,5.88,0,0,0,8.82,0A7,7,0,0,0,432.29,99.13Z" style="fill:#ebebeb"></path><path d="M447.3,101.55h-3.39v6a1.53,1.53,0,0,1-3.06,0V91.27a1.51,1.51,0,0,1,1.52-1.51h4.93a5.9,5.9,0,1,1,0,11.79Zm-3.39-3.06h3.39a2.84,2.84,0,1,0,0-5.67h-3.39Z" style="fill:#ebebeb"></path><path d="M465.37,99.38v-.06a3.9,3.9,0,0,1,7.8,0v.06a3.9,3.9,0,0,1-7.8,0Z" style="fill:#ebebeb"></path></g></svg>